<?xml version="1.0" encoding="utf-8"?>
<svg xmlns="http://www.w3.org/2000/svg" xmlns:xlink="http://www.w3.org/1999/xlink">
    <symbol xmlns="http://www.w3.org/2000/svg" id="clock" viewBox="0 0 443.294 443.294">
         <path d="m221.647 0c-122.214 0-221.647 99.433-221.647 221.647s99.433 221.647 221.647 221.647 221.647-99.433 221.647-221.647-99.433-221.647-221.647-221.647zm0 415.588c-106.941 0-193.941-87-193.941-193.941s87-193.941 193.941-193.941 193.941 87 193.941 193.941-87 193.941-193.941 193.941z"/><path d="m235.5 83.118h-27.706v144.265l87.176 87.176 19.589-19.589-79.059-79.059z"/>
    </symbol>
    <symbol xmlns="http://www.w3.org/2000/svg" id="phone"  viewBox="0 0 384 384">
         <path d="M353.188,252.052c-23.51,0-46.594-3.677-68.469-10.906c-10.719-3.656-23.896-0.302-30.438,6.417l-43.177,32.594
			c-50.073-26.729-80.917-57.563-107.281-107.26l31.635-42.052c8.219-8.208,11.167-20.198,7.635-31.448
			c-7.26-21.99-10.948-45.063-10.948-68.583C132.146,13.823,118.323,0,101.333,0H30.813C13.823,0,0,13.823,0,30.813
			C0,225.563,158.438,384,353.188,384c16.99,0,30.813-13.823,30.813-30.813v-70.323C384,265.875,370.177,252.052,353.188,252.052z"
			/>
    </symbol>
    <symbol xmlns="http://www.w3.org/2000/svg" id="book"   viewBox="0 0 412.72 412.72">
        <path d="M404.72,82.944c-0.027,0-0.054,0-0.08,0h0h-27.12v-9.28c0.146-3.673-2.23-6.974-5.76-8
			c-18.828-4.934-38.216-7.408-57.68-7.36c-32,0-75.6,7.2-107.84,40c-32-33.12-75.92-40-107.84-40
			c-19.464-0.048-38.852,2.426-57.68,7.36c-3.53,1.026-5.906,4.327-5.76,8v9.2H8c-4.418,0-8,3.582-8,8v255.52c0,4.418,3.582,8,8,8
			c1.374-0.004,2.724-0.362,3.92-1.04c0.8-0.4,80.8-44.16,192.48-16h1.2h0.72c0.638,0.077,1.282,0.077,1.92,0
			c112-28.4,192,15.28,192.48,16c2.475,1.429,5.525,1.429,8,0c2.46-1.42,3.983-4.039,4-6.88V90.944
			C412.72,86.526,409.139,82.944,404.72,82.944z M16,333.664V98.944h19.12v200.64c-0.05,4.418,3.491,8.04,7.909,8.09
			c0.432,0.005,0.864-0.025,1.291-0.09c16.55-2.527,33.259-3.864,50-4c23.19-0.402,46.283,3.086,68.32,10.32
			C112.875,307.886,62.397,314.688,16,333.664z M94.32,287.664c-14.551,0.033-29.085,0.968-43.52,2.8V79.984
			c15.576-3.47,31.482-5.241,47.44-5.28c29.92,0,71.2,6.88,99.84,39.2l0.24,199.28C181.68,302.304,149.2,287.664,94.32,287.664z
			 M214.32,113.904c28.64-32,69.92-39.2,99.84-39.2c15.957,0.047,31.863,1.817,47.44,5.28v210.48
			c-14.354-1.849-28.808-2.811-43.28-2.88c-54.56,0-87.12,14.64-104,25.52V113.904z M396.64,333.664
			c-46.496-19.028-97.09-25.831-146.96-19.76c22.141-7.26,45.344-10.749,68.64-10.32c16.846,0.094,33.663,1.404,50.32,3.92
			c4.368,0.663,8.447-2.341,9.11-6.709c0.065-0.427,0.095-0.859,0.09-1.291V98.944h19.12L396.64,333.664z"/>
    </symbol>
    <symbol xmlns="http://www.w3.org/2000/svg" id="lock"   viewBox="-38 0 512 512.00142">
     <g id="surface1">
          <path d="M 435.488281 138.917969 L 435.472656 138.519531 C 435.25 133.601562 435.101562 128.398438 435.011719 122.609375 C 434.59375 94.378906 412.152344 71.027344 383.917969 69.449219 C 325.050781 66.164062 279.511719 46.96875 240.601562 9.042969 L 240.269531 8.726562 C 227.578125 -2.910156 208.433594 -2.910156 195.738281 8.726562 L 195.40625 9.042969 C 156.496094 46.96875 110.957031 66.164062 52.089844 69.453125 C 23.859375 71.027344 1.414062 94.378906 0.996094 122.613281 C 0.910156 128.363281 0.757812 133.566406 0.535156 138.519531 L 0.511719 139.445312 C -0.632812 199.472656 -2.054688 274.179688 22.9375 341.988281 C 36.679688 379.277344 57.492188 411.691406 84.792969 438.335938 C 115.886719 468.679688 156.613281 492.769531 205.839844 509.933594 C 207.441406 510.492188 209.105469 510.945312 210.800781 511.285156 C 213.191406 511.761719 215.597656 512 218.003906 512 C 220.410156 512 222.820312 511.761719 225.207031 511.285156 C 226.902344 510.945312 228.578125 510.488281 230.1875 509.925781 C 279.355469 492.730469 320.039062 468.628906 351.105469 438.289062 C 378.394531 411.636719 399.207031 379.214844 412.960938 341.917969 C 438.046875 273.90625 436.628906 199.058594 435.488281 138.917969 Z M 384.773438 331.523438 C 358.414062 402.992188 304.605469 452.074219 220.273438 481.566406 C 219.972656 481.667969 219.652344 481.757812 219.320312 481.824219 C 218.449219 481.996094 217.5625 481.996094 216.679688 481.820312 C 216.351562 481.753906 216.03125 481.667969 215.734375 481.566406 C 131.3125 452.128906 77.46875 403.074219 51.128906 331.601562 C 28.09375 269.097656 29.398438 200.519531 30.550781 140.019531 L 30.558594 139.683594 C 30.792969 134.484375 30.949219 129.039062 31.035156 123.054688 C 31.222656 110.519531 41.207031 100.148438 53.765625 99.449219 C 87.078125 97.589844 116.34375 91.152344 143.234375 79.769531 C 170.089844 68.402344 193.941406 52.378906 216.144531 30.785156 C 217.273438 29.832031 218.738281 29.828125 219.863281 30.785156 C 242.070312 52.378906 265.921875 68.402344 292.773438 79.769531 C 319.664062 91.152344 348.929688 97.589844 382.246094 99.449219 C 394.804688 100.148438 404.789062 110.519531 404.972656 123.058594 C 405.0625 129.074219 405.21875 134.519531 405.453125 139.683594 C 406.601562 200.253906 407.875 268.886719 384.773438 331.523438 Z M 384.773438 331.523438 "  />
          <path d="M 217.996094 128.410156 C 147.636719 128.410156 90.398438 185.652344 90.398438 256.007812 C 90.398438 326.367188 147.636719 383.609375 217.996094 383.609375 C 288.351562 383.609375 345.59375 326.367188 345.59375 256.007812 C 345.59375 185.652344 288.351562 128.410156 217.996094 128.410156 Z M 217.996094 353.5625 C 164.203125 353.5625 120.441406 309.800781 120.441406 256.007812 C 120.441406 202.214844 164.203125 158.453125 217.996094 158.453125 C 271.785156 158.453125 315.546875 202.214844 315.546875 256.007812 C 315.546875 309.800781 271.785156 353.5625 217.996094 353.5625 Z M 217.996094 353.5625 "  />
          <path d="M 254.667969 216.394531 L 195.402344 275.660156 L 179.316406 259.574219 C 173.449219 253.707031 163.9375 253.707031 158.070312 259.574219 C 152.207031 265.441406 152.207031 274.953125 158.070312 280.816406 L 184.78125 307.527344 C 187.714844 310.460938 191.558594 311.925781 195.402344 311.925781 C 199.246094 311.925781 203.089844 310.460938 206.023438 307.527344 L 275.914062 237.636719 C 281.777344 231.769531 281.777344 222.257812 275.914062 216.394531 C 270.046875 210.523438 260.535156 210.523438 254.667969 216.394531 Z M 254.667969 216.394531 "  />
     </g>
    </symbol>
    <symbol xmlns="http://www.w3.org/2000/svg" id="arrow"   viewBox="0 0 268.832 268.832">
     <path d="M265.171,125.577l-80-80c-4.881-4.881-12.797-4.881-17.678,0c-4.882,4.882-4.882,12.796,0,17.678l58.661,58.661H12.5
		c-6.903,0-12.5,5.597-12.5,12.5c0,6.902,5.597,12.5,12.5,12.5h213.654l-58.659,58.661c-4.882,4.882-4.882,12.796,0,17.678
		c2.44,2.439,5.64,3.661,8.839,3.661s6.398-1.222,8.839-3.661l79.998-80C270.053,138.373,270.053,130.459,265.171,125.577z"/>
    </symbol>
    <symbol xmlns="http://www.w3.org/2000/svg" id="close"   viewBox="0 0 492 492">
          <path d="M300.188,246L484.14,62.04c5.06-5.064,7.852-11.82,7.86-19.024c0-7.208-2.792-13.972-7.86-19.028L468.02,7.872
			c-5.068-5.076-11.824-7.856-19.036-7.856c-7.2,0-13.956,2.78-19.024,7.856L246.008,191.82L62.048,7.872
			c-5.06-5.076-11.82-7.856-19.028-7.856c-7.2,0-13.96,2.78-19.02,7.856L7.872,23.988c-10.496,10.496-10.496,27.568,0,38.052
			L191.828,246L7.872,429.952c-5.064,5.072-7.852,11.828-7.852,19.032c0,7.204,2.788,13.96,7.852,19.028l16.124,16.116
			c5.06,5.072,11.824,7.856,19.02,7.856c7.208,0,13.968-2.784,19.028-7.856l183.96-183.952l183.952,183.952
			c5.068,5.072,11.824,7.856,19.024,7.856h0.008c7.204,0,13.96-2.784,19.028-7.856l16.12-16.116
			c5.06-5.064,7.852-11.824,7.852-19.028c0-7.204-2.792-13.96-7.852-19.028L300.188,246z"/>
     </symbol>
    <symbol xmlns="http://www.w3.org/2000/svg" id="menu"   viewBox="0 0 469.333 469.333">
          <g>
               <path d="M53.333,106.667H416c29.417,0,53.333-23.927,53.333-53.333S445.417,0,416,0H53.333C23.917,0,0,23.927,0,53.333
                    S23.917,106.667,53.333,106.667z"/>
               <path d="M416,181.333H53.333C23.917,181.333,0,205.26,0,234.667S23.917,288,53.333,288H416c29.417,0,53.333-23.927,53.333-53.333
                    S445.417,181.333,416,181.333z"/>
               <path d="M416,362.667H53.333C23.917,362.667,0,386.594,0,416s23.917,53.333,53.333,53.333H416
                    c29.417,0,53.333-23.927,53.333-53.333S445.417,362.667,416,362.667z"/>
          </g>
     </symbol>
    <symbol xmlns="http://www.w3.org/2000/svg" id="medal"   viewBox="0 0 479 479.84995">
         <path d="m293.773438 195.351562-72.097657 68.097657-34.601562-35.597657c-3.835938-3.949218-10.152344-4.039062-14.097657-.203124-3.949218 3.839843-4.039062 10.152343-.203124 14.101562l41.5 42.601562c3.855468 3.878907 10.085937 4.011719 14.101562.296876l79.300781-74.796876c1.925781-1.816406 3.050781-4.324218 3.125-6.96875.074219-2.644531-.90625-5.210937-2.726562-7.132812-3.859375-4.011719-10.222657-4.1875-14.300781-.398438zm0 0"/><path d="m240.273438 90.550781c-82.398438 0-149.398438 67-149.398438 149.398438 0 82.402343 67 149.402343 149.398438 149.402343 82.402343 0 149.402343-67 149.402343-149.402343 0-82.398438-67-149.398438-149.402343-149.398438zm0 278.800781c-71.398438 0-129.398438-58.101562-129.398438-129.402343s58-129.398438 129.398438-129.398438c71.46875 0 129.402343 57.933594 129.402343 129.398438 0 71.464843-57.933593 129.402343-129.402343 129.402343zm0 0"/><path d="m445.875 184.949219 3.300781-59.300781c.230469-3.980469-1.933593-7.71875-5.5-9.5l-52.800781-26.699219-26.699219-52.800781c-1.816406-3.535157-5.53125-5.6875-9.5-5.5l-59.402343 3.203124-49.5-32.703124c-3.335938-2.199219-7.660157-2.199219-11 0l-49.5 32.703124-59.296876-3.300781c-3.984374-.234375-7.71875 1.929688-9.5 5.5l-26.703124 52.800781-52.796876 26.699219c-3.539062 1.8125-5.6875 5.527344-5.5 9.5l3.296876 59.300781-32.699219 49.5c-2.199219 3.335938-2.199219 7.660157 0 11l32.601562 49.597657-3.300781 59.300781c-.230469 3.980469 1.929688 7.71875 5.5 9.5l52.800781 26.699219 26.699219 52.800781c1.8125 3.539062 5.527344 5.6875 9.5 5.5l59.300781-3.300781 49.5 32.699219c3.316407 2.269531 7.683594 2.269531 11 0l49.5-32.699219 59.300781 3.300781c3.980469.230469 7.714844-1.933594 9.5-5.5l26.699219-52.800781 52.800781-26.699219c3.535157-1.816406 5.6875-5.527344 5.5-9.5l-3.300781-59.300781 32.699219-49.5c2.199219-3.335938 2.199219-7.664063 0-11zm-18.601562 101.800781c-1.21875 1.789062-1.785157 3.941406-1.597657 6.101562l3.097657 56.097657-49.898438 25.199219c-1.902344.953124-3.445312 2.5-4.398438 4.402343l-25.203124 49.898438-56.097657-3.097657c-2.148437-.078124-4.269531.476563-6.101562 1.597657l-46.800781 30.902343-46.796876-30.902343c-1.625-1.097657-3.539062-1.691407-5.5-1.699219h-.5l-56.101562 3.101562-25.199219-49.902343c-.953125-1.902344-2.496093-3.445313-4.402343-4.398438l-50-25.101562 3.101562-56.097657c.078125-2.148437-.480469-4.269531-1.601562-6.101562l-30.898438-46.800781 30.898438-46.800781c1.222656-1.785157 1.789062-3.941407 1.601562-6.097657l-3.101562-56.101562 49.902343-25.199219c1.902344-.953125 3.445313-2.496094 4.398438-4.398438l25.199219-49.902343 56.101562 3.101562c2.144531.074219 4.265625-.480469 6.101562-1.601562l46.796876-30.898438 46.800781 30.898438c1.789062 1.222656 3.945312 1.789062 6.101562 1.601562l56.097657-3.101562 25.203124 49.902343c.953126 1.902344 2.496094 3.445313 4.398438 4.398438l49.898438 25.199219-3.097657 56.101562c-.078125 2.144531.480469 4.265625 1.597657 6.097657l30.902343 46.800781zm0 0"/>
     </symbol>
    <symbol xmlns="http://www.w3.org/2000/svg" id="speed"  viewBox="0 -4 512.00067 512">
          <path d="m430.375 283.078125 11.542969-12.957031 63.488281-71.289063c4.753906-5.339843 7.105469-12.398437 6.5-19.519531-.601562-7.121094-4.109375-13.683594-9.695312-18.144531-11.40625-8.472657-27.429688-6.667969-36.664063 4.132812l-56.738281 63.703125c-1.527344 1.71875-3.679688 2.761719-5.976563 2.894532-2.300781.132812-4.554687-.652344-6.273437-2.183594l-51.84375-46.175782-32.402344-28.851562c-1.71875-1.53125-3.976562-2.316406-6.273438-2.183594-2.300781.132813-4.449218 1.175782-5.980468 2.894532l-28.855469 32.394531-241.429687 271.082031c-9.664063 10.421875-9.605469 26.546875.128906 36.898438 5.070312 5.039062 11.992187 7.777343 19.136718 7.5625 7.144532-.214844 13.890626-3.355469 18.648438-8.691407l236.621094-265.734375c1.53125-1.722656 3.683594-2.761718 5.980468-2.894531 2.296876-.132813 4.554688.648437 6.273438 2.179687l51.84375 46.175782 12.964844 11.542968c14.316406 12.746094 36.253906 11.476563 49.003906-2.835937zm0 0"/><path d="m74.820312 175.539062c11.410157 8.472657 27.429688 6.667969 36.664063-4.132812l56.738281-63.703125c1.53125-1.71875 3.679688-2.761719 5.980469-2.894531 2.296875-.132813 4.554687.652344 6.273437 2.183594l58.324219 51.945312c1.71875 1.53125 3.976563 2.316406 6.273438 2.183594 2.296875-.132813 4.449219-1.175782 5.980469-2.894532l23.082031-25.921874c1.53125-1.71875 2.316406-3.976563 2.183593-6.273438-.132812-2.296875-1.175781-4.449219-2.894531-5.980469l-64.796875-57.707031-12.96875-11.550781c-14.3125-12.746094-36.253906-11.476563-49.003906 2.835937l-11.539062 12.964844-63.488282 71.28125c-4.757812 5.339844-7.109375 12.398438-6.503906 19.519531.605469 7.121094 4.109375 13.683594 9.695312 18.144531zm0 0"/><path d="m274.320312 458.925781c-9.664062 10.421875-9.605468 26.546875.128907 36.898438 5.074219 5.03125 11.996093 7.757812 19.140625 7.535156 7.144531-.226563 13.882812-3.375 18.632812-8.714844l63.535156-71.273437 11.539063-12.953125c6.125-6.875 9.265625-15.902344 8.734375-25.09375-.53125-9.195313-4.695312-17.796875-11.570312-23.921875l-12.957032-11.539063-64.808594-57.71875c-1.71875-1.53125-3.976562-2.316406-6.273437-2.183593-2.296875.136718-4.449219 1.175781-5.976563 2.894531l-23.085937 25.921875c-1.53125 1.71875-2.316406 3.976562-2.183594 6.273437.136719 2.296875 1.175781 4.449219 2.894531 5.980469l58.324219 51.9375c1.71875 1.53125 2.757813 3.683594 2.890625 5.980469.132813 2.296875-.652344 4.554687-2.1875 6.273437zm0 0"/><path d="m335.65625 121.265625c28.628906 25.503906 72.511719 22.964844 98.015625-5.667969 25.5-28.628906 22.964844-72.511718-5.667969-98.015625-28.628906-25.5-72.515625-22.964843-98.015625 5.667969-12.246093 13.75-18.53125 31.800781-17.46875 50.183594 1.0625 18.378906 9.386719 35.585937 23.136719 47.832031zm0 0"/><path d="m8.679688 234.304688h69.421874c4.792969 0 8.679688-3.882813 8.679688-8.675782 0-4.792968-3.886719-8.679687-8.679688-8.679687h-69.421874c-4.792969 0-8.679688 3.886719-8.679688 8.679687 0 4.792969 3.886719 8.675782 8.679688 8.675782zm0 0"/><path d="m34.710938 260.339844c0 4.792968 3.886718 8.679687 8.679687 8.679687h69.421875c4.792969 0 8.679688-3.886719 8.679688-8.679687 0-4.792969-3.886719-8.679688-8.679688-8.679688h-69.421875c-4.792969 0-8.679687 3.886719-8.679687 8.679688zm0 0"/>
        
     </symbol>
    <symbol xmlns="http://www.w3.org/2000/svg" id="heart"  viewBox="0 0 420.8 420.8">
         <path d="M413.6,204H378c14.8-33.6,13.2-60.8,7.6-79.2c-9.6-32.8-42-68.4-90-68.4c-12.8,0-25.6,2.4-38.8,7.2
			C234,72,218.8,81.2,212,86c-6.8-4.8-21.6-14-44.8-22.4c-13.2-4.8-26.4-7.2-38.8-7.2c-48,0-80.4,35.6-90,68.4
			c-5.6,19.6-7.6,49.2,11.2,86.4H6.4c-3.6,0-6.4,2.8-6.4,6.4c0,3.6,2.8,6.4,6.4,6.4h50.8c2,3.6,4.4,7.2,7.2,10.8
			c41.6,60,132,125.2,148.4,129.2v0.4c0,0,0.4,0,0.8-0.4c0.4,0,0.8,0,1.2,0v-0.4c14-6.8,100.8-62.8,146.4-129.2c4.4-6,8-12,11.2-18
			h42c3.6,0,6.4-2.8,6.4-6.4C420.8,206.4,417.2,204,413.6,204z M349.6,227.6c-42.4,62-120.4,112-137.2,122.8
			c-17.2-10.8-94.8-61.2-137.6-122.8c-0.8-1.2-1.6-2.4-2.4-3.6h58.8c2.4,0,4.8-1.2,6-3.6l26.8-52.8l42,107.6c0.8,2.4,3.6,4,6,4
			c0,0,0,0,0.4,0c2.8,0,5.2-2,6-4.8l36.8-126l19.6,63.6c0.8,2.4,2.8,4,5.2,4.4c2.4,0.4,4.8-0.8,6.4-2.8l15.6-22.8l13.2,22.4
			c1.2,2,3.2,3.2,5.6,3.2h36C354.4,220.4,352,224,349.6,227.6z M364,204h-39.2l-16.4-28c-1.2-2-3.2-3.2-5.6-3.2
			c-2.4,0-4.4,0.8-5.6,2.8l-13.6,20l-22-71.6c-0.8-2.8-3.6-4.4-6.4-4.8c-2.8,0-5.6,2-6.4,4.8l-37.2,128.4l-40.4-103.2
			c-0.8-2.4-3.2-4-5.6-4c-2.8,0-4.8,1.2-6,3.6l-31.6,62H64.4c-16-29.2-20.4-57.2-13.2-82.4c8.4-28.4,36-58.8,77.6-58.8
			c11.2,0,22.8,2.4,34.4,6.4c29.2,10.8,44.8,23.2,45.2,23.2c2.4,2,5.6,2,8,0c0,0,15.6-12.4,45.2-23.2c11.6-4.4,23.2-6.4,34.4-6.4
			c41.2,0,69.2,30.4,77.6,58.8C380.4,151.6,376.8,177.2,364,204z"/>
     </symbol>
    <symbol xmlns="http://www.w3.org/2000/svg" id="pig"   viewBox="0 0 512 512">
         <g>
	<g>
		<path d="M120.15,270c-8.354,0-15.15,6.796-15.15,15.15s6.796,15.15,15.15,15.15S135,293.503,135,285.15
			C135,276.797,128.503,270,120.15,270z"/>
	</g>
</g>
<g>
	<g>
		<path d="M257,0c-41.355,0-75,33.645-75,75s33.645,75,75,75s75-33.645,75-75S298.355,0,257,0z M257,120c-24.813,0-45-20.187-45-45
			s20.187-45,45-45s45,20.187,45,45S281.813,120,257,120z"/>
	</g>
</g>
<g>
	<g>
		<path d="M317,210H197c-8.284,0-15,6.716-15,15s6.716,15,15,15h120c8.284,0,15-6.716,15-15S325.284,210,317,210z"/>
	</g>
</g>
<g>
	<g>
		<path d="M494.426,227.575c-5.857-5.86-15.355-5.86-21.213-0.001c-5.858,5.858-5.858,15.355,0,21.213
			c5.666,5.667,8.787,13.2,8.787,21.213c0,16.542-13.458,30-30,30h-0.689C443.707,216.023,372.925,150,287,150h-30h-45
			c-9.544,0-20.481,1.082-31.06,3.03C161.073,131.929,133.882,120,105,120c-8.284,0-15,6.716-15,15v67.519
			C72.038,221.676,58.897,244.837,51.74,270H45c-24.813,0-45,20.187-45,45v31c0,24.813,20.187,44.9,45,44.9
			c5.141,0,12.307,0.013,18.005,0.045c10.444,20.546,24.993,39.099,41.929,53.257C104.999,464.091,105,496.63,105,497
			c0,8.284,6.716,15,15,15h60c8.284,0,15-6.716,15-15v-15.778c5.669,0.505,11.483,0.778,17,0.778h75v15c0,8.284,6.716,15,15,15h60
			c8.284,0,15-6.716,15-15c0-0.219,0-19.73,0.05-41.733c21.25-13.947,39.213-33.073,52.28-55.752
			c12.314-21.371,19.789-45.146,21.978-69.514H452c33.084,0,60-26.916,60-60C512,253.975,505.759,238.907,494.426,227.575z
			 M354.553,433.912c-4.618,2.675-7.467,7.602-7.482,12.938c-0.036,12.924-0.054,25.719-0.063,35.15H317c0-14.061,0-5.523,0-45
			c0-8.284-6.716-15-15-15s-15,6.716-15,15v15h-75c-5.56,0-11.438-0.323-17-0.909V437c0-8.284-6.716-15-15-15s-15,6.716-15,15
			c0,26.509,0,28.107,0,45h-30.006c-0.009-13.917-0.031-34.093-0.089-45.14c-0.025-4.686-2.238-9.09-5.982-11.907
			c-17.902-13.469-33.042-32.935-42.631-54.81c-2.298-5.242-7.378-8.72-13.096-8.965C69.224,361.009,49.011,361,45,361
			c-8.271,0-15-6.729-15-15v-31c0-8.271,6.729-15,15-15h17.962c0.017,0,0.033,0.003,0.05,0.003c0.024,0,0.047-0.003,0.071-0.003
			c7.941,0,13.545-5.041,15.106-11.45c0.593-2.436,1.816-7.452,2.1-9.246c6.235-22.657,18.407-43.387,35.249-60.014
			c2.855-2.818,4.462-6.663,4.462-10.675v-57.072c16.983,3.542,32.373,13.054,43.603,27.275c3.617,4.581,9.563,6.647,15.241,5.297
			C189.85,181.5,201.935,180,212,180h75c74.439,0,135,60.561,135,135C422,363.504,395.525,410.18,354.553,433.912z"/>
	</g>
     </symbol>
     <symbol xmlns="http://www.w3.org/2000/svg" id="edit" viewBox="0 -1 401.52289 401" >
         <path d="m370.589844 250.972656c-5.523438 0-10 4.476563-10 10v88.789063c-.019532 16.5625-13.4375 29.984375-30 30h-280.589844c-16.5625-.015625-29.980469-13.4375-30-30v-260.589844c.019531-16.558594 13.4375-29.980469 30-30h88.789062c5.523438 0 10-4.476563 10-10 0-5.519531-4.476562-10-10-10h-88.789062c-27.601562.03125-49.96875 22.398437-50 50v260.59375c.03125 27.601563 22.398438 49.96875 50 50h280.589844c27.601562-.03125 49.96875-22.398437 50-50v-88.792969c0-5.523437-4.476563-10-10-10zm0 0"/><path d="m376.628906 13.441406c-17.574218-17.574218-46.066406-17.574218-63.640625 0l-178.40625 178.40625c-1.222656 1.222656-2.105469 2.738282-2.566406 4.402344l-23.460937 84.699219c-.964844 3.472656.015624 7.191406 2.5625 9.742187 2.550781 2.546875 6.269531 3.527344 9.742187 2.566406l84.699219-23.464843c1.664062-.460938 3.179687-1.34375 4.402344-2.566407l178.402343-178.410156c17.546875-17.585937 17.546875-46.054687 0-63.640625zm-220.257812 184.90625 146.011718-146.015625 47.089844 47.089844-146.015625 146.015625zm-9.40625 18.875 37.621094 37.625-52.039063 14.417969zm227.257812-142.546875-10.605468 10.605469-47.09375-47.09375 10.609374-10.605469c9.761719-9.761719 25.589844-9.761719 35.351563 0l11.738281 11.734375c9.746094 9.773438 9.746094 25.589844 0 35.359375zm0 0"/>
     </symbol>
</svg>